<svg width="180" height="50" viewBox="0 0 180 50" fill="none" xmlns="http://www.w3.org/2000/svg">
<path d="M166.641 8.01758V36.7427C166.641 39.82 164.148 42.3117 161.076 42.3117H40.8555L40.7282 40.2669L38.731 8.01758H166.641Z" fill="#F27121"/>
<path d="M48.1473 22.9411V42.3117H42.4506L40.7282 40.2669L38.731 8.01758H42.2428C45.9133 11.9753 48.1473 17.2068 48.1473 22.9411Z" fill="#C9500D"/>
<path d="M65.1637 37.2523H67.1653V38.4858H63.8813V32.8789H65.1614V37.2523H65.1637Z" fill="white"/>
<path d="M67.7261 32.8789H69.0062V38.4858H67.7261V32.8789Z" fill="white"/>
<path d="M71.2488 37.251H73.4918V38.4846H69.9688V32.8777H73.4516V34.1113H71.2488V35.0409H73.2505V36.2588H71.2488V37.251ZM71.6733 32.0374L71.394 32.4777H70.2324L71.0813 31.2754H72.2653L73.1142 32.4777H71.9525L71.6733 32.0374Z" fill="white"/>
<path d="M77.337 32.8789H78.6171V38.4858H77.6565L75.4939 35.4421V38.4858H74.2139V32.8789H75.1745L77.337 35.9226V32.8789Z" fill="white"/>
<path d="M84.624 32.8789H85.9041V38.4858H84.624V36.26H82.8614V38.4858H81.5791V32.8789H82.8614V35.0265H84.624V32.8789Z" fill="white"/>
<path d="M88.1492 37.2529H90.3922V38.4865H86.8691V32.8796H90.3519V34.1131H88.1492V35.0428H90.1509V36.2607H88.1492V37.2529ZM88.5737 32.0616L88.3101 32.4773H87.2288L88.0219 31.3555H89.1188L89.9118 32.4773H88.8306L88.5737 32.0616ZM88.0286 40.2162C87.756 39.9368 87.756 39.5122 88.0286 39.2396C88.3168 38.967 88.7502 38.967 89.0294 39.2396C89.3087 39.5122 89.3087 39.9368 89.0294 40.2162C88.7502 40.4799 88.3168 40.4799 88.0286 40.2162Z" fill="white"/>
<path d="M94.4604 38.4858L92.6353 32.8789H94.036L95.2781 37.0042L96.5202 32.8789H97.9209L96.0957 38.4858H94.4627H94.4604Z" fill="white"/>
<path d="M100.834 38.5987C100.025 38.5987 99.337 38.3193 98.7674 37.7584C98.1977 37.1975 97.9185 36.5092 97.9185 35.6846C97.9185 34.86 98.1977 34.1717 98.7674 33.6108C99.337 33.0499 100.025 32.7705 100.834 32.7705C101.122 32.7705 101.401 32.8107 101.667 32.8823H102.235C102.588 32.8823 102.643 32.737 102.643 32.3861V32.2901H103.579V32.3861C103.579 32.9873 103.483 33.4365 102.891 33.6108H102.9C103.468 34.1717 103.749 34.86 103.749 35.6846C103.749 36.5092 103.47 37.1975 102.9 37.7584C102.331 38.3193 101.643 38.5987 100.834 38.5987ZM100.834 37.3495C101.298 37.3495 101.683 37.1975 101.996 36.8846C102.308 36.5718 102.467 36.1718 102.467 35.6824C102.467 35.193 102.306 34.7929 101.996 34.4801C101.683 34.1672 101.298 34.0153 100.834 34.0153C100.369 34.0153 99.9782 34.1672 99.6654 34.4801C99.3527 34.7929 99.2008 35.193 99.2008 35.6824C99.2008 36.1718 99.3527 36.5718 99.6654 36.8846C99.9782 37.1975 100.369 37.3495 100.834 37.3495ZM101.026 31.1973H102.467L101.538 32.3191H100.385L101.026 31.1973Z" fill="white"/>
<path d="M104.471 32.8789H105.751V38.4858H104.471V32.8789Z" fill="white"/>
<path d="M109.301 37.7644C108.749 37.2035 108.477 36.5063 108.477 35.6817C108.477 34.857 108.749 34.1598 109.301 33.6078C109.853 33.0469 110.55 32.7676 111.39 32.7676C112.391 32.7676 113.304 33.2637 113.791 34.066L112.685 34.7073C112.437 34.2671 111.957 34.019 111.387 34.019C110.892 34.019 110.492 34.171 110.195 34.4749C109.897 34.7788 109.754 35.1788 109.754 35.6839C109.754 36.1889 109.897 36.589 110.195 36.8929C110.492 37.1968 110.892 37.3488 111.387 37.3488C111.955 37.3488 112.453 37.0851 112.685 36.6605L113.791 37.3018C113.311 38.1019 112.406 38.6002 111.39 38.6002C110.55 38.6002 109.853 38.3209 109.301 37.7667V37.7644Z" fill="white"/>
<path d="M117.437 32.8789H118.72V38.4858H117.437V36.26H115.675V38.4858H114.395V32.8789H115.675V35.0265H117.437V32.8789Z" fill="white"/>
<path d="M119.64 36.6745V32.8777H120.92V36.5627C120.92 37.0834 121.217 37.3471 121.8 37.3471C122.383 37.3471 122.68 37.0834 122.68 36.5627V32.8777H123.96V36.6745C123.96 37.26 123.759 37.7315 123.353 38.0757C122.944 38.4198 122.432 38.5963 121.8 38.5963C121.168 38.5963 120.656 38.4198 120.247 38.0757C119.838 37.7315 119.64 37.2577 119.64 36.6745ZM121.201 32.3972H122.354L123.283 31.2754H121.842L121.201 32.3972Z" fill="white"/>
<path d="M128.008 32.8789H129.288V38.4858H128.328L126.165 35.4421V38.4858H124.883V32.8789H125.843L128.006 35.9226V32.8789H128.008Z" fill="white"/>
<path d="M135.801 35.3621V35.8426C135.801 36.6828 135.537 37.3488 135.016 37.8538C134.496 38.3499 133.839 38.598 133.039 38.598C132.166 38.598 131.446 38.3186 130.87 37.7577C130.303 37.1968 130.012 36.5085 130.012 35.6906C130.012 34.8727 130.291 34.1844 130.861 33.6168C131.431 33.0492 132.126 32.7676 132.952 32.7676C134.002 32.7676 134.923 33.2793 135.403 34.0503L134.313 34.676C134.065 34.2917 133.551 34.019 132.943 34.019C132.47 34.019 132.07 34.1799 131.759 34.4905C131.449 34.8012 131.295 35.2124 131.295 35.6995C131.295 36.1867 131.455 36.58 131.775 36.8929C132.094 37.1968 132.519 37.3488 133.057 37.3488C133.801 37.3488 134.275 37.0605 134.491 36.4839H132.995V35.3621H135.805H135.801Z" fill="white"/>
<path d="M142.288 32.8789V34.1125H140.847V38.4858H139.567V34.1125H138.126V32.8789H142.29H142.288Z" fill="white"/>
<path d="M145.523 32.7663C146.332 32.7663 147.02 33.0457 147.589 33.6066C148.159 34.1675 148.438 34.8558 148.438 35.6804C148.438 36.505 148.159 37.1933 147.589 37.7542C147.02 38.3152 146.332 38.5945 145.523 38.5945C144.714 38.5945 144.026 38.3152 143.456 37.7542C142.887 37.1933 142.607 36.505 142.607 35.6804C142.607 34.8558 142.887 34.1675 143.456 33.6066C144.026 33.0457 144.714 32.7663 145.523 32.7663ZM145.523 37.3475C145.987 37.3475 146.372 37.1956 146.684 36.8827C146.997 36.5698 147.158 36.1698 147.158 35.6804C147.158 35.191 146.997 34.791 146.684 34.4781C146.372 34.1653 145.987 34.0133 145.523 34.0133C145.058 34.0133 144.667 34.1653 144.354 34.4781C144.042 34.791 143.89 35.191 143.89 35.6804C143.89 36.1698 144.042 36.5698 144.354 36.8827C144.667 37.1956 145.058 37.3475 145.523 37.3475ZM145.532 31.9574L145.252 32.3976H144.091L144.94 31.1953H146.126L146.975 32.3976H145.813L145.534 31.9574H145.532Z" fill="white"/>
<path d="M149.16 32.8789H150.442V38.4858H149.16V32.8789Z" fill="white"/>
<path d="M166.641 8.01758V28.8542H160.446L154.251 36.9193V28.8542H64.5334C61.4594 28.8542 58.9663 26.3602 58.9663 23.2852V8.24105C58.9663 8.1673 58.9663 8.09132 58.9708 8.01758H166.641Z" fill="#C9500D"/>
<path d="M174.433 0H64.5334C61.4594 0 58.9663 2.49396 58.9663 5.56894V20.6131C58.9663 23.6881 61.4594 26.1821 64.5334 26.1821H154.251V34.2472L160.446 26.1821H174.433C177.507 26.1821 180 23.6881 180 20.6131V5.56894C180 2.49396 177.507 0 174.433 0Z" fill="#FCB953"/>
<path d="M154.251 26.1834H64.5334C61.4572 26.1834 58.9663 23.6894 58.9663 20.6122V17.9395C58.9663 21.0167 61.4572 23.5106 64.5334 23.5106H154.251V26.1834Z" fill="#FF9000"/>
<path d="M180 17.9395V20.6122C180 23.6894 177.507 26.1834 174.433 26.1834H160.444L154.251 34.2485V31.5758L160.444 23.5106H174.433C177.505 23.5106 180 21.0167 180 17.9395Z" fill="#FF9000"/>
<path d="M118.922 46.5371H52.8474C52.5377 46.5371 52.2866 46.7877 52.2866 47.0969C52.2866 47.4061 52.5377 47.6567 52.8474 47.6567H118.922C119.232 47.6567 119.483 47.4061 119.483 47.0969C119.483 46.7877 119.232 46.5371 118.922 46.5371Z" fill="#FF9000"/>
<path d="M121.724 47.6589C122.034 47.6589 122.285 47.4078 122.285 47.098C122.285 46.7882 122.034 46.5371 121.724 46.5371C121.414 46.5371 121.163 46.7882 121.163 47.098C121.163 47.4078 121.414 47.6589 121.724 47.6589Z" fill="#FF9000"/>
<path d="M124.528 47.6589C124.837 47.6589 125.088 47.4078 125.088 47.098C125.088 46.7882 124.837 46.5371 124.528 46.5371C124.218 46.5371 123.967 46.7882 123.967 47.098C123.967 47.4078 124.218 47.6589 124.528 47.6589Z" fill="#FF9000"/>
<path d="M46.2415 47.6581V50L38.3667 40.6388C34.2941 44.1004 28.9705 46.2167 23.1219 46.2167C10.3524 46.2167 0 36.2073 0 23.8604C0 23.4671 0.01117 23.0783 0.031276 22.6895C0.661264 34.4933 10.7589 43.8747 23.1219 43.8747C28.9705 43.8747 34.2941 41.7584 38.3667 38.2968L46.2415 47.6581Z" fill="#FF9000"/>
<path d="M46.2415 23.8584V47.656L38.3667 38.2948C34.2941 41.7564 28.9705 43.8727 23.1219 43.8727C10.7589 43.8727 0.661238 34.4913 0.03125 22.6874C0.661238 10.8836 10.7589 1.5 23.1219 1.5C35.4848 1.5 46.2415 11.5093 46.2415 23.8584Z" fill="#FCB953"/>
<path d="M33.9946 28.3076C33.9388 27.9545 33.836 27.6149 33.6953 27.2953L26.4035 26.1399C25.874 26.7388 25.5054 27.483 25.3691 28.3076C23.4814 27.6528 21.788 26.5735 20.4052 25.188C19.0201 23.8024 17.9433 22.1107 17.2843 20.2202C18.1086 20.0838 18.8526 19.7151 19.4535 19.1877L18.2963 11.8913C17.9791 11.7528 17.6373 11.6477 17.2843 11.5919C17.0497 11.5494 16.8062 11.5293 16.5583 11.5293C14.1433 11.5293 12.1863 13.4869 12.1841 15.9049C12.1863 25.5701 20.0209 33.4073 29.6808 33.4073C32.0979 33.405 34.0549 31.4474 34.0549 29.0317C34.0549 28.7836 34.0348 28.5423 33.9924 28.3054L33.9946 28.3076Z" fill="white"/>
</svg>
