<svg width="160" height="120" fill="none" xmlns="http://www.w3.org/2000/svg"><rect width="160" height="120" rx="8" fill="#FFECB9"/><mask id="a" style="mask-type:luminance" maskUnits="userSpaceOnUse" x="0" y="0" width="160" height="120"><rect width="160" height="120" rx="8" fill="#fff"/></mask><g mask="url(#a)"><path d="M61.404 167.004c-.039-.191-.07-.38-.103-.572-.377-2.226-3.502-17.156-19.794-19.935-17.614-3.005-23.59-19.636-15.641-28.952 7.948-9.315 25.539-17.947 24.837-31-.699-13.056 5.545-25.845 19.354-30.107 13.811-4.259 19.132 5.27 26.285 3.823 7.151-1.443 11.037-1.888 18.18-13.344 7.144-11.456 25.071-16.595 37.619 4.073 11.618 19.144 24.004 20.828 25.775 20.973.149.012.273.017.422.033 2.524.27 27.373 3.553 27.158 28.251-.226 26.02-27.75 23.854-33.974 37.843-6.224 13.988 2.669 26.26-18.036 40.52-20.706 14.261-33.375-5.909-46.651 4.04-13.233 9.916-39.212 14.333-45.43-15.646zM-31.297 30.394c-.033-.204-.058-.41-.085-.616-.284-2.156-2.443-15.216-13.3-17.665-11.842-2.671-15.859-17.455-10.516-25.735 5.344-8.28 17.17-15.954 16.698-27.556-.47-11.606 3.728-22.973 13.011-26.762 9.285-3.786 12.862 4.684 17.67 3.398 4.808-1.282 7.42-1.677 12.223-11.861 4.802-10.183 16.854-14.751 25.29 3.62 7.725 16.832 15.955 18.48 17.286 18.638.127.015.245.023.372.041 1.935.285 18.354 3.34 18.21 25.106C65.41-5.87 46.907-7.795 42.722 4.639c-4.184 12.435 1.795 23.343-12.125 36.019-13.919 12.675-22.436-5.253-31.361 3.59-8.89 8.81-26.338 12.736-30.533-13.854z" fill="#FFF1CB"/><path d="M141.084 83.588c1.862-2.481 3.637-5.033 5.377-7.608 1.685-2.498 3.648-4.99 4.836-7.794.047-.11-.109-.203-.156-.093-1.144 2.699-3.014 5.093-4.637 7.498-1.794 2.665-3.623 5.302-5.549 7.868-.071.093.058.225.129.13z" fill="#184F78"/><path d="M151.133 68.315c.492 3.034 1.232 6.032 1.885 9.032.658 3.02 1.33 6.037 2.149 9.018.033.116.207.068.175-.05-.822-2.978-1.494-5.996-2.15-9.019-.652-3-1.392-5.997-1.884-9.031-.019-.116-.194-.065-.175.05zM140.885 83.743c.65.89 1.759 1.362 2.72 1.802 1.155.527 2.387.992 3.638 1.187 1.253.194 2.558.158 3.823.194 1.379.04 2.739.023 4.083-.33.111-.03.065-.208-.05-.18-2.261.595-4.861.403-7.171.209-1.155-.096-2.261-.44-3.34-.86-1.155-.452-2.783-1.058-3.55-2.113-.065-.098-.224-.005-.153.09zM142.226 82.959a4.5 4.5 0 0 0 .729-.025c.115-.012.115-.2 0-.186a4.843 4.843 0 0 1-.729.025c-.118-.006-.118.18 0 .186zM144.242 82.876l1.24.16c.115.014.115-.172 0-.186a1075.1 1075.1 0 0 0-1.24-.16c-.114-.017-.114.172 0 .186zM146.785 83.047l1.188.246c.114.022.161-.155.049-.18l-1.188-.246c-.115-.023-.161.158-.049.18zM149.443 83.478c.284.116.576.21.874.282.112.029.161-.152.049-.18a6.332 6.332 0 0 1-.874-.282c-.109-.042-.156.138-.049.18zM151.637 84.176c.238.107.481.2.726.284.112.037.159-.143.05-.18a6.698 6.698 0 0 1-.686-.265c-.104-.048-.196.113-.09.16zM153.565 84.932c.238.147.481.277.732.395.107.048.197-.113.09-.16a6.633 6.633 0 0 1-.732-.395c-.098-.062-.191.098-.09.16z" fill="#184F78"/><path d="M147.889 85.103c1.265.27 2.565.265 3.826.564 1.172.28 2.3.69 3.499.854.114.014.114-.172 0-.186-1.289-.174-2.499-.651-3.766-.919-1.158-.245-2.349-.245-3.507-.49-.117-.026-.166.152-.052.177z" fill="#184F78"/><path opacity=".12" d="M91.09 87.773a.74.74 0 0 1-.713-.64c-.953-6.488-6.328-11.533-12.893-11.66-6.565-.126-12.117 4.707-13.305 11.153a.737.737 0 0 1-.734.612l-3.032-.06a.75.75 0 0 0-.75.748l-.052 2.8a.751.751 0 0 0 .723.775l33.707.651a.75.75 0 0 0 .752-.747l.051-2.8a.751.751 0 0 0-.723-.775l-3.032-.057zm-13.688-7.788c4.02.079 7.374 2.902 8.42 6.703.133.49-.23.978-.727.97l-15.659-.302c-.494-.008-.84-.51-.69-.998 1.182-3.759 4.64-6.452 8.656-6.373z" fill="#184F78"/><path d="M82.67 41.925a231.376 231.376 0 0 1 3.952 25.096c.014.13.205.099.191-.031a231.509 231.509 0 0 0-3.951-25.096c-.025-.125-.219-.094-.191.03z" fill="#184F78"/><path d="M69.951 57.078c12.155-1.695 24.433-3.438 35.96-7.969.118-.045.039-.228-.079-.183-11.51 4.526-23.772 6.26-35.91 7.954-.124.017-.096.215.03.198zM83.724 41.034l.5.668c.076.102.227-.022.15-.127l-.5-.668c-.076-.101-.226.026-.15.127z" fill="#184F78"/><path d="M84.288 40.667a2.84 2.84 0 0 1-.32 1.819c-.06.11.096.231.156.118a3.062 3.062 0 0 0 .355-1.968c-.019-.127-.21-.096-.19.031zM104.678 51.048c.369.324.797.538 1.27.645.123.029.145-.172.022-.2a2.634 2.634 0 0 1-1.177-.609c-.093-.084-.208.08-.115.164z" fill="#184F78"/><path d="M105.574 50.767c-.166.43-.393.821-.674 1.18-.079.1.076.22.155.118a4.74 4.74 0 0 0 .7-1.224c.046-.119-.134-.192-.181-.074zM104.886 48.542c.371.133.715.313 1.037.547-.008-.048-.013-.093-.022-.14a2.055 2.055 0 0 0-.376.76c-.033.125.147.198.18.074.071-.268.185-.5.352-.716a.102.102 0 0 0-.022-.141 4.29 4.29 0 0 0-1.081-.57c-.115-.045-.186.144-.068.186zM82.544 42.572l.079-.335c.016-.065.038-.136.046-.2l.017-.068c-.03-.06-.03-.07.005-.037.074.014.186.147.243.195.096.081.189.169.279.256.09.088.24-.036.15-.127a5.119 5.119 0 0 0-.385-.352c-.082-.068-.21-.214-.33-.195-.099.017-.126.119-.148.203-.052.212-.101.426-.15.638-.03.124.164.146.194.022zM79.608 57.913c.462-2.295.926-4.6 1.611-6.838a28.483 28.483 0 0 1 1.158-3.15c.257-.58.522-1.19.855-1.728.273-.443.464-.787 1.147-.595.292.082.6.37.836.572 3.102 2.668 4.806 6.635 7.775 9.444.092.087.207-.077.114-.161-1.794-1.698-3.135-3.793-4.588-5.792-.699-.964-1.43-1.909-2.255-2.76-.55-.57-1.352-1.554-2.196-1.566-.776-.008-1.092.903-1.395 1.506a25.602 25.602 0 0 0-1.464 3.624c-.787 2.422-1.292 4.926-1.792 7.424-.024.124.17.147.194.02z" fill="#184F78"/><path d="M117.807 53.351a87.816 87.816 0 0 0 3.698-5.044l-.197-.06c-.038 1.106-.12 2.177-.355 3.257-.183.84-.355 1.67-.194 2.527.028.138.233.084.205-.054-.191-1.006.115-1.965.303-2.944.178-.919.219-1.852.252-2.786.002-.112-.14-.144-.197-.059a87.85 87.85 0 0 1-3.698 5.045c-.082.11.099.225.183.118z" fill="#FC611F"/><path d="M118.968 51.39c.716.119 1.426.27 2.127.463.131.036.192-.175.06-.212a21.005 21.005 0 0 0-2.127-.462c-.131-.02-.194.191-.06.211zM122.566 51.58c.688.198 1.371.41 2.051.638.131.042.191-.167.06-.212a48.09 48.09 0 0 0-2.051-.637c-.131-.037-.194.172-.06.212zM122.495 52.69l2.335.677c.131.04.191-.172.06-.211l-2.335-.677c-.131-.037-.191.175-.06.212zM127.042 51.52l1.008 2.781c.027.079.147.124.194.031.524-1.038 1.043-2.078 1.57-3.116.191-.375.415-.648.874-.536.273.065.543.156.813.234.541.161 1.079.33 1.62.502a93.207 93.207 0 0 0 6.39 1.797c4.315 1.034 8.69 1.895 12.803 3.646.125.053.185-.158.06-.212-3.46-1.472-7.117-2.32-10.757-3.164-1.808-.42-3.616-.84-5.405-1.348-1.797-.51-3.561-1.144-5.36-1.638-.727-.2-.94.054-1.265.7-.508 1.006-1.016 2.013-1.521 3.02l.194.03-1.008-2.78c-.052-.127-.256-.076-.21.054z" fill="#FC611F"/><path d="M130.658 52.602c.003-.338.219-.324.653.043l-.101.256c-.12.22-.3.37-.494.51-.29.21-.606.384-.912.568-.071.042-.077.183.022.2.543.096.832.66 1.425.575.134-.02.085-.231-.052-.212-.5.071-.844-.49-1.313-.572.008.068.013.136.021.2.62-.375 1.773-.885 1.634-1.821-.039-.262-.235-.55-.522-.522-.336.034-.513.42-.56.714-.027.138.178.203.199.062zM133.351 52.45c-.21.206-.956.66-.759 1.05.095.185.368.185.508.306.379.339.06.759-.293.889-.213.079-.453.065-.677.059-.136-.003-.142.217-.003.22.525.008 1.216-.062 1.344-.705a.602.602 0 0 0-.145-.556c-.073-.076-.169-.098-.245-.16a.24.24 0 0 1-.14-.153c-.139-.076-.155-.143-.046-.205.068-.187.464-.452.603-.587.099-.096-.049-.254-.147-.158z" fill="#FC611F"/><path d="M133.339 52.614c.393.127.792.22 1.201.28.134.019.137-.2.003-.22a6.952 6.952 0 0 1-1.144-.271c-.131-.04-.191.169-.06.211zM135.542 55.058c.639.152 1.281.273 1.928.366.134.02.137-.2.003-.22a21.037 21.037 0 0 1-1.873-.358c-.129-.03-.189.18-.058.212z" fill="#FC611F"/><path d="M136.766 54.606c-.153.536-.306 1.075-.461 1.61-.039.136.163.198.204.063.153-.536.306-1.075.462-1.61.035-.136-.167-.198-.205-.063zM139.87 54.359c-.267.933-.532 1.864-.8 2.797-.038.135.164.197.205.062.268-.933.533-1.864.8-2.797.038-.136-.166-.198-.205-.062zM142.395 54.86c-.59-.002-1.005.533-1.131 1.089-.096.428-.057 1.34.41 1.57.505.251 1.081-.84 1.218-1.184.218-.541.131-1.159-.331-1.523-.109-.084-.221.102-.112.187.434.34.413.933.186 1.39-.153.31-.606 1.19-1.024.719-.535-.604-.022-2.039.778-2.033.139.005.145-.215.006-.215zM143.669 57.24c.132.04.192-.17.06-.211-.131-.04-.191.172-.06.211zM144.975 56.964l.442 1.94c.019.084.153.118.194.03l.702-1.488c.281-.6.467-1.447 1.286-1.357.494.054 1.03.313 1.505.457.513.158 1.027.313 1.537.471.131.04.191-.17.06-.211l-2.018-.618c-.442-.135-1.089-.48-1.565-.327-.39.127-.559.561-.723.908-.323.682-.642 1.365-.964 2.044.065.012.128.02.194.031l-.443-1.94c-.033-.13-.237-.079-.207.06z" fill="#FC611F"/><path d="M148.572 57.113c-.3.214-.617.418-.909.646-.101.079-.202.13-.18.273.016.102.098.144.166.206.142.133.437.426.366.669-.09.313-.592.183-.805.14-.134-.028-.194.184-.061.212.435.09 1.153.18 1.068-.477-.035-.276-.185-.422-.33-.634-.022-.034-.118-.06-.123-.096-.025-.132.202-.242.284-.302.21-.149.418-.298.628-.445.109-.08.011-.274-.104-.192z" fill="#FC611F"/><path d="m148.58 57.353 1.115.169c.133.02.136-.2.002-.22l-1.114-.17c-.134-.019-.136.2-.003.22zM126.956 55.138c7.832 1.94 15.372 5.056 23.338 6.426.134.023.194-.186.06-.211-7.966-1.37-15.506-4.486-23.338-6.427-.131-.03-.191.181-.06.212zM138.658 59.335c-.358.226-.719.452-1.076.674-.148.093-.391.178-.429.373-.008.047.003.098.046.124.366.23 1.336.344 1.592-.11.071-.127-.095-.223-.18-.116a1.896 1.896 0 0 0-.363 1.638c.03.139.238.085.205-.053a1.697 1.697 0 0 1 .336-1.472c-.06-.04-.12-.076-.181-.116-.139.246-.595.175-.816.152-.279-.03-.352-.028-.112-.23.317-.266.729-.457 1.076-.675.117-.07.019-.262-.098-.189zM152.991 61.394c-.538-.27-1.486.578-1.144 1.156.158.265.491.307.751.2.409-.169.661-.609.764-1.029l-.207-.034c-.055.519.082.993.385 1.407.082.113.238-.04.156-.15a1.742 1.742 0 0 1-.328-1.251c.014-.124-.18-.152-.208-.034-.101.412-.409.981-.893.897-.63-.113.142-1.21.612-.973.123.056.235-.127.112-.19zM154.586 61.082c.197-.301.571.048.322.3-.12.117-.262.18-.352.329-.035.056-.008.15.06.164.194.042.366.118.525.24.109.084.221-.105.112-.187a1.436 1.436 0 0 0-.579-.265l.06.164c.106-.172.319-.232.42-.412a.472.472 0 0 0 .003-.44c-.161-.316-.573-.282-.751-.008-.076.115.107.23.18.115z" fill="#FC611F"/><path opacity=".12" d="M113.136 80.474 83.752 93.656c-.773.347-.56 1.531.281 1.571l35.619 1.633c.587.028.997-.59.765-1.145l-6.235-14.816a.786.786 0 0 0-1.046-.425zm.107 11.741-11.74-1.097c-.276-.025-.369-.453-.123-.566l9.416-4.312c.128-.059.287.017.352.167l2.324 5.41c.09.201-.035.415-.229.398z" fill="#184F78"/><path d="M129.388 80.36H94.894a.751.751 0 0 1-.74-.764v-4.097c0-.423.33-.764.74-.764h34.494c.41 0 .74.34.74.764v4.097c0 .42-.33.764-.74.764z" fill="#184F78"/><path d="M131.237 74.73H96.743a.751.751 0 0 1-.74-.765v-4.097c0-.423.33-.764.74-.764h34.494c.409 0 .74.34.74.764v4.097c0 .42-.333.764-.74.764z" fill="#FC611F"/><path d="M125.282 69.086H90.788a.751.751 0 0 1-.74-.764v-4.097c0-.423.33-.764.74-.764h34.494c.409 0 .74.34.74.764v4.097c0 .42-.331.764-.74.764z" fill="#16B6C6"/><path d="M98.861 63.457h-3.706v5.628h3.706v-5.628z" fill="#118995"/><path opacity=".3" d="M105.936 69.104h-3.706v5.628h3.706v-5.628z" fill="#fff"/><path d="M102.425 74.73h-3.706v5.629h3.706v-5.628z" fill="#124768"/><path d="M130.889 69.104h-29.201l30.288 2.814v-1.692c0-.62-.486-1.122-1.087-1.122z" fill="#EA541F"/><path d="M129.043 74.73H99.839l30.288 2.815v-1.692c0-.62-.486-1.122-1.084-1.122z" fill="#124768"/><path opacity=".12" d="m94.573 79.326-.418 8.197 32.328-7.163" fill="#184F78"/><path d="M109.697 75.355 82.923 93.526c-.704.477-.297 1.607.538 1.497l35.368-4.67c.581-.075.885-.755.562-1.262L110.8 75.589a.784.784 0 0 0-1.103-.234zm2.048 11.55-11.748.987c-.279.023-.44-.383-.213-.538l8.564-5.91c.117-.083.284-.035.374.103l3.184 4.921c.117.186.03.42-.161.437z" fill="#FDC00F"/><path opacity=".12" d="m148.778 83.361-28.027 16.707a.618.618 0 0 1-.858-.236l-1.581-2.826a.66.66 0 0 1 .23-.885l28.029-16.71a.619.619 0 0 1 .858.236l1.581 2.826a.665.665 0 0 1-.232.888z" fill="#184F78"/><path d="M142.649 73.474 121.181 98.48a.613.613 0 0 1-.885.057l-2.364-2.166a.662.662 0 0 1-.055-.914l21.467-25.006a.613.613 0 0 1 .885-.056l2.365 2.166a.66.66 0 0 1 .055.913z" fill="#16B6C6"/><path d="m147.12 110.908-18.076-8.242a.86.86 0 0 1-.421-1.123l8.701-20.342a.812.812 0 0 1 1.087-.434l18.075 8.242a.859.859 0 0 1 .421 1.123l-8.701 20.342a.81.81 0 0 1-1.086.434z" fill="#134768"/><path d="m146.757 109.918-17.426-7.946a.86.86 0 0 1-.421-1.122l8.403-19.649a.812.812 0 0 1 1.087-.434l17.426 7.946a.86.86 0 0 1 .421 1.122l-8.403 19.649a.815.815 0 0 1-1.087.434z" fill="#25668E"/><path d="M140.859 97.856c3.787 2.501 7.873 2.871 10.808 2.693l4.583-10.715a.863.863 0 0 0-.421-1.123l-17.425-7.946a.815.815 0 0 0-1.087.434l-6.033 14.102c1.756-.392 5.055-.428 9.575 2.555z" fill="#184F78"/><path d="m154.294 90.291-15.986-7.29-1.292 3.021 15.986 7.29 1.292-3.02z" fill="#25668E"/><path d="m136.588 92.723-2.523-1.15c-.057-.026-.082-.097-.057-.156l1.037-2.428c.025-.059.093-.084.15-.059l2.524 1.15a.12.12 0 0 1 .057.156l-1.038 2.427c-.027.06-.095.085-.15.06zM140.202 94.368l-2.523-1.15a.12.12 0 0 1-.057-.155l1.038-2.428a.112.112 0 0 1 .15-.06l2.523 1.151a.12.12 0 0 1 .057.155l-1.037 2.428c-.025.06-.093.085-.151.06zM143.799 96.012l-2.523-1.15c-.058-.026-.082-.096-.058-.156l1.038-2.428c.025-.059.093-.084.15-.059l2.524 1.15a.12.12 0 0 1 .057.156l-1.038 2.428c-.027.059-.092.087-.15.059zM147.412 97.657l-2.523-1.15a.12.12 0 0 1-.057-.155l1.037-2.428a.114.114 0 0 1 .151-.06l2.523 1.151a.12.12 0 0 1 .057.155l-1.037 2.428c-.028.06-.093.085-.151.06zM151.009 99.304l-2.523-1.15c-.058-.026-.082-.096-.058-.155l1.038-2.428a.113.113 0 0 1 .15-.06l2.524 1.151a.12.12 0 0 1 .057.155l-1.038 2.428a.113.113 0 0 1-.15.06zM134.637 97.296l-2.523-1.15c-.058-.026-.082-.096-.058-.156l1.038-2.427a.113.113 0 0 1 .15-.06l2.524 1.15c.057.026.082.097.057.156l-1.038 2.428a.11.11 0 0 1-.15.059zM138.251 98.947l-2.523-1.15a.12.12 0 0 1-.057-.156l1.037-2.428c.025-.06.093-.084.151-.06l2.523 1.151a.12.12 0 0 1 .057.156l-1.037 2.427a.117.117 0 0 1-.151.06zM141.848 100.587l-2.523-1.15c-.058-.026-.082-.096-.058-.155l1.038-2.428a.113.113 0 0 1 .15-.06l2.524 1.151c.057.025.081.096.057.155l-1.038 2.428c-.027.059-.095.085-.15.059zM145.46 102.231l-2.523-1.151c-.057-.025-.082-.096-.057-.155l1.037-2.428a.114.114 0 0 1 .151-.059l2.523 1.15a.12.12 0 0 1 .057.156l-1.038 2.428c-.024.059-.092.084-.15.059zM149.059 103.878l-2.523-1.15c-.058-.025-.082-.096-.058-.155l1.038-2.428a.112.112 0 0 1 .15-.059l2.524 1.15c.057.026.081.096.057.155l-1.038 2.428c-.027.059-.093.088-.15.059zM139.948 105.017l-2.524-1.15c-.057-.026-.082-.096-.057-.155l1.038-2.428a.112.112 0 0 1 .15-.059l2.523 1.15c.058.026.082.096.058.155l-1.038 2.428a.115.115 0 0 1-.15.059z" fill="#16B6C6"/><path d="m135.742 103.093-5.596-2.552c-.057-.025-.082-.095-.057-.155l1.037-2.427c.025-.06.093-.085.151-.06l5.595 2.552c.057.026.082.096.057.155l-1.037 2.428c-.028.059-.093.085-.15.059z" fill="#FDC00F"/><path d="m143.562 106.658-2.523-1.151c-.058-.025-.082-.095-.058-.155l1.038-2.428a.113.113 0 0 1 .15-.059l2.523 1.151c.058.025.082.096.058.155l-1.038 2.428a.113.113 0 0 1-.15.059zM147.176 108.303l-2.523-1.151c-.058-.025-.082-.096-.058-.155l1.038-2.428a.113.113 0 0 1 .15-.059l2.524 1.15a.12.12 0 0 1 .057.155l-1.038 2.428a.113.113 0 0 1-.15.06z" fill="#16B6C6"/><path d="M87.854 76.584a.723.723 0 0 1-.885-.345c-3.09-5.732-9.833-8.518-16.027-6.268-6.194 2.25-9.757 8.786-8.687 15.255a.762.762 0 0 1-.48.84l-2.86 1.041a.766.766 0 0 0-.45.97l.9 2.64a.73.73 0 0 0 .94.465l31.798-11.564a.766.766 0 0 0 .451-.97l-.901-2.64a.73.73 0 0 0-.94-.465l-2.859 1.04zm-15.46-2.355c3.794-1.379 7.893.056 10.16 3.24.292.412.114 1-.353 1.17l-14.774 5.372c-.467.169-.961-.175-.983-.685-.164-3.948 2.16-7.718 5.95-9.097z" fill="#FC611F"/><path d="M58.255 101.607c.117 1.024.248 2.092.551 3.077.216.707.705 1.218 1.456 1.187.087-.003.065-.141-.022-.138-.983.039-1.28-.889-1.456-1.706a25.433 25.433 0 0 1-.396-2.442c-.01-.091-.144-.068-.133.022z" fill="#184F78"/><path d="M57.767 103.42a7.293 7.293 0 0 0 1.63-.095c.085-.014.066-.153-.021-.139-.53.091-1.06.122-1.595.093-.085-.002-.101.136-.014.141zM61.645 103.332c-.267-.4-1.037-.392-1.3.023-.33.524-.038 1.401.427 1.725.486.342 1.048.13 1.24-.437.114-.338.07-.739-.003-1.083-.041-.194-.104-.36-.306-.403-.052-.011-.09.054-.069.099.162.338.328.677.593.945.26.262.58.448.893.631.077.045.156-.067.08-.113-.293-.169-.585-.341-.834-.575-.275-.265-.445-.6-.611-.944-.022.033-.047.064-.069.098.32.068.265.996.216 1.201-.126.547-.647.793-1.103.44-.352-.273-.475-.741-.429-1.178.033-.302.191-.477.483-.542.249-.056.528-.022.683.206.055.071.159-.02.11-.093zM63.301 102.699a7.1 7.1 0 0 1 .617 2.042c.044-.009.09-.014.134-.023-.057-.316-.115-.631-.166-.947-.055-.341-.186-1.01.363-.948.382.043.41.536.494.835.085.299.208.578.358.849.044.076.166.02.123-.059a3.635 3.635 0 0 1-.35-.832c-.057-.206-.087-.434-.188-.626-.12-.229-.339-.367-.593-.308-.248.06-.393.26-.412.516-.036.488.147 1.063.235 1.537.016.088.147.068.133-.022a7.16 7.16 0 0 0-.628-2.079c-.035-.073-.158-.016-.12.065zM66.348 100.871c-.322 1.315-.298 3.021 1.073 3.683.08.04.128-.093.05-.13-1.3-.626-1.3-2.267-.998-3.502.022-.087-.103-.138-.125-.051zM70.45 100.355c.628.903 1.343 2.022.824 3.158-.038.082.09.133.126.051.54-1.181-.189-2.354-.847-3.296-.049-.074-.155.014-.104.087zM72.291 101.523c.585-.07 1.166-.161 1.745-.273.085-.017.066-.156-.022-.139-.578.113-1.16.203-1.745.274-.087.008-.065.146.022.138zM72.7 102.311l1.583-.262c.085-.014.066-.152-.022-.138l-1.584.262c-.084.014-.065.152.022.138zM76.475 97.825c-.462-.05-.99.384-.787.911.071.183.227.212.404.212.235 0 .383-.08.596.07.442.31-.014.747-.361.838-.085.022-.063.16.022.138.407-.107.844-.505.584-.973-.098-.18-.267-.245-.461-.245-.112 0-.366.079-.465.03-.07-.112-.142-.225-.21-.338l.093-.262c.134-.203.35-.262.57-.24.086.006.102-.132.015-.14zM77.546 98.162c.046.42.142.829.282 1.229.03.085.153.025.123-.06a5.371 5.371 0 0 1-.271-1.192c-.011-.087-.145-.065-.134.023zM77.486 97.535c.088-.014.066-.153-.022-.14-.088.015-.066.154.022.14zM78.19 97.51c.145.514.29 1.03.437 1.543.025.085.145.07.134-.022-.027-.246-.103-.477-.134-.72-.04-.315.137-1.046.618-.637.31.268.346 1.01.398 1.396.011.09.145.068.134-.022-.06-.432-.13-1.653-.778-1.622-.795.037-.415 1.193-.369 1.627l.134-.022c-.145-.514-.29-1.03-.437-1.543-.027-.084-.161-.065-.136.023zM74.786 101.149c3.925-.827 7.83-1.754 11.708-2.78.084-.023.063-.162-.022-.139a235.267 235.267 0 0 1-11.707 2.78c-.085.017-.063.155.021.139zM78.1 101.712c-.522.299-1.101 1.023-.883 1.689.142.434 1.158.657 1.196.081.006-.09-.128-.104-.133-.014-.009.113-.36.201-.456.192a.56.56 0 0 1-.312-.104c-.251-.181-.213-.516-.128-.784a1.66 1.66 0 0 1 .773-.934c.074-.042.019-.169-.058-.126zM79.17 102.198a.853.853 0 0 0-.237 1.072c.191.35.644.482 1 .344.384-.152.587-.606.502-1.015-.033-.158-.11-.333-.249-.42-.232-.15-.69-.057-.953-.057-.087 0-.1.139-.013.139.314-.003.893-.125 1.043.236.136.33.016.773-.298.945-.303.166-.734.082-.91-.24a.707.707 0 0 1 .203-.896c.068-.051-.016-.158-.087-.108zM81.295 101.331a.424.424 0 0 0-.366.643c.082.144.23.239.385.273.131.029.325-.017.443.051.303.172.092.465-.058.578a.543.543 0 0 1-.284.104c-.087.009-.065.147.022.139.303-.034.67-.308.615-.669-.025-.163-.143-.251-.29-.296-.096-.028-.194-.022-.295-.031-.112-.011-.202-.022-.29-.098-.12-.046-.144-.141-.079-.282-.057-.187.003-.28.186-.274.082 0 .098-.138.011-.138zM83.265 100.168c-.3.491-.546 1.196-.363 1.774.174.55.77.711 1.256.818.085.02.098-.121.013-.138-.475-.102-1.054-.257-1.168-.824-.104-.521.103-1.111.368-1.545.05-.076-.06-.161-.106-.085zM84.465 100.512c.085-.158.243-.206.404-.164.216.056.325.265.355.479.052.361-.033.948-.475.968-.087.002-.066.141.022.138.579-.023.702-.857.543-1.309-.139-.394-.72-.645-.958-.194-.041.079.068.161.109.082z" fill="#184F78"/><path d="M85.359 99.987c-.17.065-.194.231-.197.401-.003.256-.01.719.148.939.229.318.857.056 1.024-.209.046-.076-.063-.158-.11-.082-.133.217-.71.457-.838.116-.07-.192-.197-.948.03-1.035.08-.034.022-.16-.057-.13zM85.985 99.301c.265-.036.573.28.748.451.175.172.333.367.445.593.224.451.235.987-.057 1.407-.052.073.06.155.109.081.344-.493.309-1.13.02-1.644-.222-.394-.79-1.094-1.287-1.023-.087.011-.066.15.022.135zM81.636 96.377c-.3.49-.546 1.195-.363 1.773.175.55.77.71 1.256.818.085.02.098-.121.014-.138-.476-.102-1.055-.257-1.17-.823-.103-.522.105-1.112.37-1.546.049-.079-.06-.16-.107-.084zM82.836 96.726c.085-.158.243-.206.404-.164.216.056.325.265.355.48.052.36-.032.947-.475.967-.087.002-.066.14.022.138.579-.023.702-.858.543-1.309-.139-.394-.72-.645-.958-.194-.041.076.068.16.109.082z" fill="#184F78"/><path d="M83.715 96.198c-.17.065-.194.231-.196.4-.003.257-.011.72.147.94.23.318.858.056 1.024-.21.047-.075-.063-.157-.11-.08-.133.216-.71.456-.837.115-.072-.192-.197-.948.03-1.035.082-.034.024-.16-.058-.13zM67.684 101.666c.15-.296.505-.347.78-.228.296.127.443.442.492.753.09.572-.043 1.582-.77 1.601-.084.003-.1.141-.013.138.895-.022 1.087-1.28.868-1.982-.197-.634-1.111-1.06-1.48-.33-.044.076.082.127.123.048z" fill="#184F78"/><path d="M69.13 100.902c-.25.078-.289.352-.289.592-.003.279.03.564.068.84.028.195.038.462.156.632.164.237.497.2.745.16.336-.05.64-.186.822-.49.047-.076-.062-.158-.109-.082-.24.398-1.196.736-1.403.169-.088-.237-.096-.55-.118-.798-.019-.24-.128-.795.189-.897.079-.025.021-.152-.06-.126zM84.357 95.514c.265-.036.574.28.751.451.175.172.333.367.445.593.224.45.235.986-.057 1.407-.052.073.06.155.11.081.343-.493.308-1.13.018-1.644-.22-.394-.789-1.094-1.286-1.023-.09.011-.068.15.02.135z" fill="#184F78"/><path opacity=".12" d="m75.564 99.757-.456-1.444a3.616 3.616 0 0 1-.295-.147l-.09-.053a2.78 2.78 0 0 1-.273-.175 3.12 3.12 0 0 1-.142-.105c-.033-.025-.06-.05-.093-.076-.04-.036-.082-.07-.123-.11-.03-.028-.054-.056-.082-.081l-.106-.113c-.025-.028-.05-.06-.074-.088a3.427 3.427 0 0 1-.156-.205 1.277 1.277 0 0 1-.081-.13c-.017-.028-.036-.056-.052-.088-.028-.045-.05-.093-.074-.138l-.041-.082c-.025-.05-.046-.104-.068-.157-.008-.023-.02-.046-.028-.068a2.63 2.63 0 0 1-.065-.192l-.011-.034a4.037 4.037 0 0 1-.164-.953v-.003a3.306 3.306 0 0 1-.008-.23v-.006c0-.077 0-.153.003-.226.032-1.007.336-1.81.336-1.81l-.293-1.176-6.567 1.945.456 1.241c3.315 1.98 1.171 5.27 1.171 5.27l.456 1.512 6.92-2.078z" fill="#184F78"/><path d="m64.813 92.673 6.567-1.945.293 1.175s-1.464 3.86 1.69 5.27l.456 1.444-6.926 2.081-.456-1.511s2.147-3.29-1.171-5.27l-.454-1.244z" fill="#184F78"/><path d="M69.393 96.034c.216 0 .391-.18.391-.403a.397.397 0 0 0-.39-.403c-.216 0-.391.18-.391.403 0 .223.175.403.39.403z" fill="#F5F8FB"/><path d="M73.368 97.172c-1.715-.767-2.065-2.258-2.026-3.46-.986 2.23-2.554 4.636-4.9 5.477l.454 1.508 6.925-2.081-.453-1.444z" fill="#124768"/><path d="M67.56 93.248c.099 0 1.901-.57 1.901-.57l1.609 5.406-2.037.663-1.472-5.499z" fill="#F5F8FB"/><path d="m68.493 92.98 1.117-.38 1.587 5.45-1.164.384" fill="#E1E8EF"/><path d="M69.843 95.978a.36.36 0 0 1-.352.364.36.36 0 0 1-.352-.364c0-.2.158-.364.352-.364a.36.36 0 0 1 .352.364z" fill="#184F78"/><path opacity=".12" d="M125.829 107.488v-.003a.169.169 0 0 0-.039-.09c-.01-.011-.027-.022-.043-.034l-1.557-.783-2.851-1.436v.009c-.019-.006-.038-.014-.06-.02l-23.333-5.143a.554.554 0 0 0-.549.191c-.204.251-.48.663-.59 1.123l-.027.143-.002.017c-.006.045-.011.088-.014.133v.034c0 .039-.003.079 0 .121 0 .017.003.034.003.048.002.037.005.073.013.11.003.022.008.042.014.065l.022.096.027.079.03.081c.014.034.033.065.052.099l.033.062c.033.054.07.107.112.161.022.025.044.051.068.07.074.065.164.11.26.133l11.655 2.49 11.655 2.49a.558.558 0 0 0 .221 0 .455.455 0 0 0 .071-.023l2.977-.042 1.704-.026a.144.144 0 0 0 .096-.036c.003-.003.003-.006.005-.006a.117.117 0 0 0 .03-.048.112.112 0 0 0 .017-.065z" fill="#184F78"/><path d="m121.769 106.298.549-1.387a.593.593 0 0 0-.322-.77l-22.279-8.812a.555.555 0 0 0-.573.102c-.448.403-1.237 1.311-.675 2.29a.58.58 0 0 0 .293.253l22.284 8.646a.551.551 0 0 0 .723-.322z" fill="#184F78"/><path d="M121.881 105.499c-.169-.057-18.709-7.208-23.488-9.052-.153.38-.186.82.073 1.275a.58.58 0 0 0 .293.254l22.283 8.645a.56.56 0 0 0 .724-.327l.549-1.387a.603.603 0 0 0 .027-.353l-.461.945z" fill="#124768"/><path d="m122.054 104.164 4.02 2.896c.128.093.049.298-.107.276l-4.634-.682.721-2.49z" fill="#EFC4A3"/><path d="m124.285 107.087 1.688.249c.153.022.232-.184.106-.277l-1.42-1.023c-.431.428-.453.798-.374 1.051z" fill="#184F78"/></g><path d="M10.496 22.307v-8.4H14.6c1.056 0 1.848.2 2.376.6.536.4.804.928.804 1.584 0 .44-.108.824-.324 1.152-.216.32-.512.568-.888.744a3.024 3.024 0 0 1-1.296.264l.228-.492c.528 0 .996.088 1.404.264.408.168.724.42.948.756.232.336.348.748.348 1.236 0 .72-.284 1.284-.852 1.692-.568.4-1.404.6-2.508.6h-4.344zm1.932-1.464h2.268c.504 0 .884-.08 1.14-.24.264-.168.396-.432.396-.792 0-.352-.132-.612-.396-.78-.256-.176-.636-.264-1.14-.264h-2.412v-1.416h2.076c.472 0 .832-.08 1.08-.24.256-.168.384-.42.384-.756 0-.328-.128-.572-.384-.732-.248-.168-.608-.252-1.08-.252h-1.932v5.472zm11.564 1.608c-.664 0-1.28-.108-1.848-.324a4.439 4.439 0 0 1-1.464-.912 4.282 4.282 0 0 1-.96-1.38 4.379 4.379 0 0 1-.336-1.728c0-.624.112-1.2.336-1.728.232-.528.556-.988.972-1.38a4.439 4.439 0 0 1 1.464-.912 5.026 5.026 0 0 1 1.824-.324c.664 0 1.272.108 1.824.324.56.216 1.044.52 1.452.912a4.194 4.194 0 0 1 1.32 3.108c0 .624-.116 1.204-.348 1.74a4.195 4.195 0 0 1-.972 1.38 4.405 4.405 0 0 1-1.452.9 4.93 4.93 0 0 1-1.812.324zm-.012-1.656c.376 0 .72-.064 1.032-.192a2.448 2.448 0 0 0 1.392-1.404c.136-.328.204-.692.204-1.092 0-.4-.068-.764-.204-1.092a2.448 2.448 0 0 0-.552-.852 2.351 2.351 0 0 0-.828-.552 2.786 2.786 0 0 0-1.044-.192c-.376 0-.724.064-1.044.192a2.504 2.504 0 0 0-.828.552c-.24.24-.428.524-.564.852a2.98 2.98 0 0 0-.192 1.092c0 .392.064.756.192 1.092.136.328.32.612.552.852.24.24.52.424.84.552.32.128.668.192 1.044.192zm0 4.032a.847.847 0 0 1-.588-.216c-.16-.144-.24-.34-.24-.588 0-.248.08-.452.24-.612a.822.822 0 0 1 .588-.228c.232 0 .428.076.588.228.16.16.24.364.24.612s-.08.444-.24.588a.847.847 0 0 1-.588.216zm-2.412-11.604 1.584-1.728h1.656l1.584 1.728h-1.368l-1.656-1.44h1.224l-1.656 1.44h-1.368zm12.503 9.084v-8.4h3.816c.912 0 1.716.176 2.412.528.696.344 1.24.828 1.632 1.452.392.624.588 1.364.588 2.22 0 .848-.196 1.588-.588 2.22a4.027 4.027 0 0 1-1.632 1.464c-.696.344-1.5.516-2.412.516h-3.816zm1.944-1.596h1.776c.56 0 1.044-.104 1.452-.312.416-.216.736-.52.96-.912.232-.392.348-.852.348-1.38 0-.536-.116-.996-.348-1.38a2.223 2.223 0 0 0-.96-.9c-.408-.216-.892-.324-1.452-.324h-1.776v5.208zm-3.072-2.028v-1.296h5.184v1.296h-5.184zm13.067-1.392h4.044v1.512H46.01v-1.512zm.144 3.456h4.572v1.56h-6.504v-8.4h6.348v1.56h-4.416v5.28zm-1.164-7.524 1.596-1.368h1.632l1.596 1.368h-1.38l-1.62-1.08h1.176l-1.62 1.08h-1.38zm4.572-1.152-1.884-1.452h1.908l1.32 1.452h-1.344zm10.669 10.38c-.664 0-1.28-.108-1.848-.324a4.439 4.439 0 0 1-1.464-.912 4.282 4.282 0 0 1-.96-1.38 4.379 4.379 0 0 1-.336-1.728c0-.624.112-1.2.336-1.728.232-.528.556-.988.972-1.38a4.439 4.439 0 0 1 1.464-.912 5.026 5.026 0 0 1 1.824-.324c.664 0 1.272.108 1.824.324.56.216 1.044.52 1.452.912a4.194 4.194 0 0 1 1.32 3.108c0 .624-.116 1.204-.348 1.74a4.195 4.195 0 0 1-.972 1.38 4.405 4.405 0 0 1-1.452.9 4.93 4.93 0 0 1-1.812.324zm-.012-1.656c.376 0 .72-.064 1.032-.192a2.448 2.448 0 0 0 1.392-1.404c.136-.328.204-.692.204-1.092 0-.4-.068-.764-.204-1.092a2.448 2.448 0 0 0-.552-.852 2.351 2.351 0 0 0-.828-.552 2.786 2.786 0 0 0-1.044-.192c-.376 0-.724.064-1.044.192a2.504 2.504 0 0 0-.828.552c-.24.24-.428.524-.564.852a2.98 2.98 0 0 0-.192 1.092c0 .392.064.756.192 1.092.136.328.32.612.552.852.24.24.52.424.84.552.32.128.668.192 1.044.192zm-2.412-7.572 1.584-1.728h1.656l1.584 1.728h-1.368l-1.656-1.44h1.224l-1.656 1.44h-1.368zm8.709 9.084v-8.4h1.608l4.956 6.048h-.78v-6.048h1.92v8.4h-1.596l-4.968-6.048h.78v6.048h-1.92zm15.31 0v-6.816h-2.688v-1.584h7.32v1.584H83.77v6.816h-1.944zm11.678-8.4h1.944v8.4h-1.944v-8.4zm-3.816 8.4h-1.944v-8.4h1.944v8.4zm3.96-3.444h-4.104V17.22h4.104v1.644zm4.027 3.444v-8.4h1.944v8.4h-1.944zm10.336 0-3.624-8.4h2.1l3.168 7.44h-1.236l3.216-7.44h1.932l-3.636 8.4h-1.92zm5.112 0 3.744-8.4h1.92l3.756 8.4h-2.04l-3.072-7.416h.768l-3.084 7.416h-1.992zm1.872-1.8.516-1.476h4.32l.528 1.476h-5.364zm2.46-7.284-2.172-1.728h2.016l1.62 1.728h-1.464zm10.162 9.228c-.664 0-1.28-.108-1.848-.324a4.439 4.439 0 0 1-1.464-.912 4.282 4.282 0 0 1-.96-1.38 4.379 4.379 0 0 1-.336-1.728c0-.624.112-1.2.336-1.728.232-.528.556-.988.972-1.38a4.439 4.439 0 0 1 1.464-.912 5.026 5.026 0 0 1 1.824-.324c.664 0 1.272.108 1.824.324.56.216 1.044.52 1.452.912a4.194 4.194 0 0 1 1.32 3.108c0 .624-.116 1.204-.348 1.74a4.195 4.195 0 0 1-.972 1.38 4.405 4.405 0 0 1-1.452.9 4.93 4.93 0 0 1-1.812.324zm-.012-1.656c.376 0 .72-.064 1.032-.192a2.448 2.448 0 0 0 1.392-1.404c.136-.328.204-.692.204-1.092 0-.4-.068-.764-.204-1.092a2.448 2.448 0 0 0-.552-.852 2.351 2.351 0 0 0-.828-.552 2.786 2.786 0 0 0-1.044-.192c-.376 0-.724.064-1.044.192a2.504 2.504 0 0 0-.828.552c-.24.24-.428.524-.564.852a2.98 2.98 0 0 0-.192 1.092c0 .392.064.756.192 1.092.136.328.32.612.552.852.24.24.52.424.84.552.32.128.668.192 1.044.192zm10.704 1.512v-7.68l.84.84h-2.52v-1.56h3.624v8.4h-1.944zm7.243.144a3.445 3.445 0 0 1-1.848-.504c-.544-.344-.972-.84-1.284-1.488-.312-.648-.468-1.432-.468-2.352 0-.92.156-1.704.468-2.352.312-.648.74-1.14 1.284-1.476a3.384 3.384 0 0 1 1.848-.516c.696 0 1.312.172 1.848.516.544.336.972.828 1.284 1.476.312.648.468 1.432.468 2.352 0 .92-.156 1.704-.468 2.352-.312.648-.74 1.144-1.284 1.488-.536.336-1.152.504-1.848.504zm0-1.644c.328 0 .612-.092.852-.276.248-.184.44-.476.576-.876.144-.4.216-.916.216-1.548s-.072-1.148-.216-1.548c-.136-.4-.328-.692-.576-.876a1.36 1.36 0 0 0-.852-.276c-.32 0-.604.092-.852.276-.24.184-.432.476-.576.876-.136.4-.204.916-.204 1.548s.068 1.148.204 1.548c.144.4.336.692.576.876.248.184.532.276.852.276zM12.236 39.307v-6.816H9.548v-1.584h7.32v1.584H14.18v6.816h-1.944zm9.88.144c-.663 0-1.28-.108-1.847-.324a4.439 4.439 0 0 1-1.464-.912 4.282 4.282 0 0 1-.96-1.38 4.379 4.379 0 0 1-.336-1.728c0-.624.112-1.2.336-1.728.232-.528.556-.988.972-1.38a4.439 4.439 0 0 1 1.464-.912 5.026 5.026 0 0 1 1.824-.324c.664 0 1.272.108 1.824.324.56.216 1.044.52 1.452.912a4.194 4.194 0 0 1 1.32 3.108c0 .624-.116 1.204-.348 1.74a4.195 4.195 0 0 1-.972 1.38 4.405 4.405 0 0 1-1.452.9 4.93 4.93 0 0 1-1.812.324zm-.011-1.656c.376 0 .72-.064 1.032-.192a2.448 2.448 0 0 0 1.392-1.404c.136-.328.204-.692.204-1.092 0-.4-.068-.764-.204-1.092a2.448 2.448 0 0 0-.552-.852 2.351 2.351 0 0 0-.828-.552 2.786 2.786 0 0 0-1.044-.192c-.376 0-.724.064-1.044.192a2.504 2.504 0 0 0-.828.552c-.24.24-.428.524-.564.852a2.98 2.98 0 0 0-.192 1.092c0 .392.064.756.192 1.092.136.328.32.612.552.852.24.24.52.424.84.552.32.128.668.192 1.044.192zm5.076 1.512 3.744-8.4h1.92l3.756 8.4h-2.04l-3.072-7.416h.768l-3.084 7.416H27.18zm1.872-1.8.516-1.476h4.32l.528 1.476h-5.364zm1.74-7.284 1.62-1.728h2.016l-2.172 1.728h-1.464zm6.92 9.084v-8.4h1.607l4.956 6.048h-.78v-6.048h1.92v8.4H43.82l-4.968-6.048h.78v6.048h-1.92z" fill="#A07D00"/></svg>